<svg width="620" height="163" viewBox="0 0 620 163" fill="none" xmlns="http://www.w3.org/2000/svg">
<path d="M316.502 8.25652C319.7 8.36907 322.898 8.51877 326.095 8.70589L326.562 0.719552C323.303 0.5288 320.043 0.376199 316.783 0.261475L316.502 8.25652Z" fill="#0E85D0"/>
<path d="M272.357 9.0445C275.548 8.81886 278.744 8.62951 281.943 8.4767L281.561 0.485805C278.301 0.641531 275.044 0.834495 271.793 1.06442L272.357 9.0445Z" fill="#0E85D0"/>
<path d="M360.468 12.1819C363.635 12.6394 366.797 13.1349 369.955 13.6687L371.288 5.78063C368.068 5.23609 364.842 4.73067 361.612 4.26409L360.468 12.1819Z" fill="#0E85D0"/>
<path d="M228.538 14.4656C231.685 13.9071 234.841 13.3841 238.006 12.8968L236.789 4.98996C233.564 5.48651 230.347 6.0195 227.14 6.58865L228.538 14.4656Z" fill="#0E85D0"/>
<path d="M403.719 20.9118C406.813 21.7204 409.899 22.5678 412.975 23.4544L415.191 15.7673C412.05 14.8622 408.9 13.9971 405.742 13.1717L403.719 20.9118Z" fill="#0E85D0"/>
<path d="M185.539 24.4709C188.606 23.5822 191.688 22.7282 194.782 21.9094L192.736 14.1756C189.581 15.0103 186.44 15.8809 183.313 16.7869L185.539 24.4709Z" fill="#0E85D0"/>
<path d="M445.67 34.5161C448.646 35.6785 451.61 36.8803 454.56 38.1219L457.663 30.7484C454.649 29.4798 451.621 28.2518 448.581 27.0643L445.67 34.5161Z" fill="#0E85D0"/>
<path d="M143.876 39.0534C146.828 37.8326 149.799 36.646 152.789 35.4941L149.912 28.0291C146.862 29.2043 143.831 30.415 140.819 31.6607L143.876 39.0534Z" fill="#0E85D0"/>
<path d="M485.69 52.9993C488.499 54.5112 491.293 56.0627 494.069 57.6542L498.048 50.7139C495.209 49.0866 492.353 47.5002 489.481 45.9546L485.69 52.9993Z" fill="#0E85D0"/>
<path d="M104.152 58.2298C106.943 56.6735 109.76 55.1511 112.601 53.663L108.888 46.5766C105.986 48.0967 103.109 49.6521 100.256 51.2423L104.152 58.2298Z" fill="#0E85D0"/>
<path d="M523.123 76.2512C525.718 78.0977 528.294 79.9837 530.849 81.9093L535.663 75.5202C533.05 73.5506 530.415 71.6216 527.761 69.7329L523.123 76.2512Z" fill="#0E85D0"/>
<path d="M67.063 82.0216C69.6335 80.1323 72.235 78.2762 74.8665 76.4537L70.3116 69.877C67.619 71.7418 64.9564 73.6414 62.325 75.5756L67.063 82.0216Z" fill="#0E85D0"/>
<path d="M33.4339 110.405C35.7187 108.189 38.0407 106.005 40.3987 103.854L35.007 97.9437C32.5891 100.15 30.2076 102.389 27.8636 104.663L33.4339 110.405Z" fill="#0E85D0"/>
<path d="M557.341 104.004C559.681 106.159 561.998 108.353 564.292 110.586L569.871 104.852C567.525 102.569 565.155 100.325 562.762 98.1206L557.341 104.004Z" fill="#0E85D0"/>
<path d="M587.817 135.821C588.855 137.048 589.886 138.284 590.911 139.53L597.089 134.446C596.041 133.173 594.987 131.909 593.926 130.655L587.817 135.821Z" fill="#0E85D0"/>
<path d="M7.13841 139.467C8.1253 138.218 9.12284 136.977 10.1309 135.744L3.93696 130.681C2.90101 131.948 1.87575 133.224 0.861328 134.508L7.13841 139.467Z" fill="#0E85D0"/>
<path d="M616 112.987V158.987H570V162.987H620V112.987H616Z" fill="#0E85D0"/>
</svg>
